<svg xmlns="http://www.w3.org/2000/svg" viewBox="0 0 32 32">
  <g fill="#f7931a">
    <path d="M15.76 11.78c.82-.42 1.23-.94 1.23-1.56 0-.84-.51-1.26-1.53-1.26h-3.26v2.82h3.56zm.31 3.07c-.91 0-1.56.08-1.95.25v3.33h1.95c1.18 0 1.77-.6 1.77-1.8 0-1.19-.59-1.78-1.77-1.78z"/>
    <path d="M16 0C7.16 0 0 7.16 0 16s7.16 16 16 16 16-7.16 16-16S24.84 0 16 0zm6.84 17.88c0 2.25-1.13 3.73-3.39 4.44l-.02.01-.5.14v1.68h-1.98v-1.54c-.51.04-1.03.06-1.57.06-.55 0-1.08-.02-1.6-.06v1.54h-1.98v-1.68l-.5-.14-.02-.01c-2.26-.71-3.39-2.19-3.39-4.44v-.01c0-2.24 1.11-3.77 3.34-4.6v-1.97c-1.91-.83-2.87-2.07-2.87-3.72 0-2.25 1.56-3.71 4.68-4.36V1.85h1.98v1.49c.52-.04 1.05-.06 1.6-.06s1.08.02 1.6.06V1.85h1.98v1.37c3.12.65 4.68 2.11 4.68 4.36 0 1.65-.96 2.89-2.87 3.72v1.97c2.23.83 3.34 2.36 3.34 4.6v.01z"/>
  </g>
</svg> 