<svg xmlns="http://www.w3.org/2000/svg" viewBox="0 0 32 32">
  <circle cx="16" cy="16" r="16" fill="#22a6f2"/>
  <path fill="#fff" d="M17.7 16.42v4.28h-1.4v-4.18c-1.15-.14-2.08-.57-2.78-1.29-.7-.72-1.05-1.62-1.05-2.71h1.36c0 .82.26 1.49.78 2 .52.51 1.15.77 1.9.77.8 0 1.45-.22 1.94-.67.5-.45.74-1.05.74-1.8 0-.74-.22-1.32-.67-1.74-.45-.42-1.08-.63-1.9-.63h-1.86v-1.3h1.86c.67 0 1.2-.17 1.6-.52.4-.35.6-.82.6-1.43 0-.6-.2-1.07-.58-1.42-.39-.35-.92-.52-1.6-.52-.67 0-1.22.2-1.66.6-.44.4-.66.93-.66 1.6h-1.36c0-.95.33-1.72 1-2.32.67-.6 1.52-.9 2.56-.9.97 0 1.77.26 2.4.77.63.51.94 1.18.94 2.02 0 .56-.16 1.04-.47 1.45-.31.41-.73.7-1.26.88v.08c.66.18 1.17.52 1.54 1.02.37.5.56 1.1.56 1.8 0 1-.36 1.8-1.07 2.4-.71.6-1.63.96-2.76 1.06z"/>
</svg> 